<svg viewBox="0 0 40 40" fill="none" xmlns="http://www.w3.org/2000/svg"><path d="M34.777 8.525H4.855l-.31.005c-.226.007-.454.02-.677.06-.227.04-.438.107-.644.211a2.16 2.16 0 00-1.158 1.583c-.04.223-.054.45-.06.674a15.15 15.15 0 00-.005.31v17.265c.001.103.002.206.005.31.006.224.02.45.06.673.04.226.107.436.212.64a2.144 2.144 0 00.946.943c.206.105.417.171.644.212.223.04.45.053.677.059.103.002.207.004.31.004l.37.001h29.921l.311-.005c.226-.006.454-.02.677-.06.227-.04.438-.106.644-.21a2.15 2.15 0 00.946-.943c.105-.205.171-.415.212-.641.04-.222.053-.45.06-.674l.004-.31.001-.367v-16.53L38 11.369c0-.103-.002-.207-.005-.31a4.457 4.457 0 00-.06-.674 2.163 2.163 0 00-1.158-1.583 2.295 2.295 0 00-.643-.211 4.55 4.55 0 00-.677-.06 15.591 15.591 0 00-.311-.004l-.369-.001z" fill="#000"/><path d="M34.775 9.29h.364c.098.001.197.002.296.005.172.005.374.014.562.047.163.03.3.074.431.14a1.391 1.391 0 01.61.609c.067.13.111.265.14.43.034.184.043.385.048.558.002.097.004.195.004.295l.001.362v16.893l-.005.292a3.783 3.783 0 01-.048.561 1.48 1.48 0 01-.14.428 1.387 1.387 0 01-.611.608c-.13.066-.267.11-.429.14a3.913 3.913 0 01-.56.047c-.1.002-.198.004-.3.004l-.363.001H4.858l-.294-.005a3.923 3.923 0 01-.562-.047c-.163-.03-.3-.074-.432-.141a1.38 1.38 0 01-.61-.607 1.497 1.497 0 01-.14-.43 3.769 3.769 0 01-.048-.558 14.274 14.274 0 01-.004-.294V11.373c0-.098.002-.196.004-.294a3.77 3.77 0 01.049-.56c.029-.162.073-.299.14-.43a1.381 1.381 0 01.61-.606c.13-.067.268-.111.43-.14a3.85 3.85 0 01.563-.048c.098-.003.197-.004.295-.004l.364-.001h29.552" fill="#fff"/><path d="M11.83 16.244c.308-.384.517-.9.462-1.426-.451.022-1.002.296-1.32.68-.287.33-.54.867-.474 1.371.506.044 1.013-.252 1.332-.625zm.456.724c-.736-.044-1.361.416-1.713.416-.351 0-.89-.394-1.471-.384a2.17 2.17 0 00-1.844 1.116c-.79 1.357-.209 3.369.56 4.474.373.546.823 1.148 1.416 1.127.56-.022.78-.361 1.46-.361.68 0 .878.36 1.47.35.616-.011 1-.547 1.373-1.094.428-.623.604-1.225.615-1.258-.011-.011-1.186-.46-1.197-1.805-.01-1.127.922-1.662.966-1.695-.527-.777-1.35-.864-1.635-.886zm6.403-1.525c1.599 0 2.712 1.098 2.712 2.696 0 1.603-1.136 2.706-2.752 2.706h-1.77v2.803h-1.28v-8.205h3.09zm-1.81 4.333h1.467c1.114 0 1.747-.597 1.747-1.632 0-1.034-.633-1.626-1.741-1.626h-1.473v3.258zm4.858 2.172c0-1.046.805-1.688 2.233-1.768l1.645-.097v-.46c0-.666-.452-1.064-1.205-1.064-.714 0-1.16.342-1.268.876h-1.165c.069-1.08.994-1.876 2.478-1.876 1.456 0 2.387.767 2.387 1.967v4.122H25.66v-.983h-.028c-.349.665-1.108 1.086-1.896 1.086-1.176 0-1.999-.728-1.999-1.803zm3.878-.54v-.472l-1.48.091c-.736.051-1.153.375-1.153.887 0 .523.434.864 1.096.864.863 0 1.537-.59 1.537-1.37zm2.341 4.442v-.996c.091.023.297.023.4.023.57 0 .88-.239 1.067-.853 0-.012.11-.364.11-.37l-2.17-5.987h1.335l1.52 4.867h.022l1.52-4.867h1.301l-2.25 6.294c-.514 1.45-1.108 1.917-2.352 1.917a4.79 4.79 0 01-.503-.029z" fill="#000"/></svg>