<svg viewBox="0 0 140 40" fill="none" xmlns="http://www.w3.org/2000/svg"><path d="M52.35 10.645h-7.747a1.076 1.076 0 00-1.064.908l-3.133 19.865a.645.645 0 00.64.746h3.697a1.075 1.075 0 001.064-.91l.845-5.358a1.076 1.076 0 011.063-.91h2.452c5.103 0 8.048-2.469 8.818-7.363.346-2.14.014-3.823-.988-5-1.101-1.294-3.054-1.978-5.647-1.978zm.894 7.255c-.424 2.78-2.548 2.78-4.602 2.78h-1.169l.82-5.192a.645.645 0 01.638-.545h.536c1.4 0 2.719 0 3.4.798.407.476.532 1.182.377 2.159zm22.263-.09h-3.71a.646.646 0 00-.637.545l-.165 1.038-.26-.376c-.802-1.166-2.593-1.555-4.38-1.555-4.1 0-7.601 3.104-8.283 7.46-.355 2.172.15 4.25 1.382 5.699 1.13 1.332 2.748 1.887 4.672 1.887 3.303 0 5.135-2.124 5.135-2.124l-.165 1.03a.645.645 0 00.636.748h3.342a1.076 1.076 0 001.064-.91l2.005-12.696a.642.642 0 00-.636-.746zm-5.17 7.22c-.359 2.12-2.041 3.543-4.187 3.543-1.077 0-1.938-.346-2.49-1-.549-.65-.757-1.576-.583-2.607.334-2.101 2.045-3.57 4.158-3.57 1.053 0 1.91.35 2.474 1.01.565.667.789 1.598.627 2.625zm24.928-7.22h-3.728a1.08 1.08 0 00-.892.473l-5.141 7.573-2.18-7.278a1.08 1.08 0 00-1.033-.768h-3.663a.646.646 0 00-.613.855l4.106 12.05-3.86 5.45a.645.645 0 00.527 1.02h3.723a1.075 1.075 0 00.885-.463l12.399-17.898a.646.646 0 00-.53-1.014z" fill="#253B80"/><path d="M107.61 10.645h-7.748a1.076 1.076 0 00-1.063.908L95.666 31.42a.646.646 0 00.637.745h3.976a.754.754 0 00.743-.637l.889-5.63a1.077 1.077 0 011.063-.91h2.451c5.104 0 8.048-2.47 8.818-7.363.348-2.141.014-3.823-.988-5.001-1.1-1.294-3.052-1.978-5.645-1.978zm.894 7.255c-.423 2.78-2.547 2.78-4.602 2.78h-1.167l.821-5.191a.644.644 0 01.636-.545h.536c1.398 0 2.719 0 3.401.797.406.476.53 1.183.375 2.16zm22.262-.09h-3.708a.643.643 0 00-.636.546l-.164 1.037-.261-.376c-.803-1.165-2.593-1.555-4.38-1.555-4.1 0-7.6 3.105-8.282 7.46-.353 2.173.148 4.25 1.381 5.7 1.133 1.331 2.748 1.886 4.672 1.886 3.304 0 5.135-2.124 5.135-2.124l-.165 1.031a.647.647 0 00.639.748h3.34a1.077 1.077 0 001.063-.91l2.006-12.697a.652.652 0 00-.64-.745zm-5.171 7.22c-.356 2.12-2.04 3.543-4.186 3.543-1.075 0-1.938-.345-2.491-1-.548-.65-.754-1.576-.582-2.607.337-2.1 2.045-3.57 4.157-3.57 1.054 0 1.91.35 2.474 1.01.568.668.792 1.599.628 2.625zm9.545-13.84l-3.18 20.229a.642.642 0 00.637.745h3.196c.531 0 .982-.385 1.064-.91l3.135-19.864a.643.643 0 00-.636-.746h-3.58a.65.65 0 00-.636.546z" fill="#179BD7"/><path d="M8.232 36.024l.592-3.763-1.32-.03h-6.3L5.581 4.462a.358.358 0 01.356-.304h10.625c3.528 0 5.962.734 7.233 2.183.596.68.975 1.39 1.159 2.172.193.82.196 1.8.008 2.995l-.014.087v.766l.596.337c.455.23.864.542 1.206.92.51.581.84 1.32.98 2.195.143.9.095 1.972-.14 3.186-.272 1.395-.712 2.61-1.305 3.605a7.417 7.417 0 01-2.067 2.266c-.789.56-1.726.984-2.785 1.256-1.026.267-2.196.402-3.48.402h-.826c-.592 0-1.166.213-1.617.595-.45.386-.749.919-.843 1.504l-.062.339-1.047 6.632-.047.244c-.013.077-.034.115-.066.141a.175.175 0 01-.109.04H8.232z" fill="#253B80"/><path d="M26.112 11.685c-.032.203-.068.41-.11.623-1.4 7.194-6.194 9.68-12.317 9.68h-3.117c-.749 0-1.38.543-1.496 1.282L7.475 33.392l-.452 2.87a.797.797 0 00.788.922h5.529a1.33 1.33 0 001.314-1.122l.054-.28 1.041-6.607.067-.363a1.33 1.33 0 011.314-1.123h.827c5.357 0 9.55-2.175 10.776-8.469.512-2.629.247-4.824-1.108-6.368a5.286 5.286 0 00-1.513-1.167z" fill="#179BD7"/><path d="M24.639 11.1c-.448-.129-.903-.23-1.363-.302-.91-.14-1.828-.207-2.748-.2H12.2a1.327 1.327 0 00-1.313 1.123L9.115 22.942l-.05.328a1.514 1.514 0 011.496-1.282h3.117c6.123 0 10.917-2.487 12.318-9.68.042-.213.077-.42.109-.623a7.467 7.467 0 00-1.152-.486 10.178 10.178 0 00-.314-.098z" fill="#222D65"/><path d="M10.89 11.721a1.325 1.325 0 011.313-1.122h8.328c.987 0 1.908.064 2.748.2.57.09 1.13.223 1.678.4.413.137.797.299 1.152.486.417-2.659-.003-4.469-1.44-6.108C23.082 3.773 20.222 3 16.562 3H5.938c-.748 0-1.386.544-1.501 1.283L.01 32.336a.913.913 0 00.9 1.056h6.56l1.648-10.45 1.771-11.22z" fill="#253B80"/></svg>