<svg viewBox="0 0 40 40" fill="none" xmlns="http://www.w3.org/2000/svg"><path fill-rule="evenodd" clip-rule="evenodd" d="M34.778 8.529H4.856c-.103.001-.207.002-.31.005a4.52 4.52 0 00-.677.06c-.227.04-.438.106-.644.21a2.163 2.163 0 00-1.158 1.583c-.04.223-.054.45-.06.674-.003.103-.004.206-.005.31V28.63c.001.103.002.206.005.31.006.224.02.45.06.673.04.226.107.436.212.64a2.149 2.149 0 00.946.942c.206.105.417.171.644.212.223.04.45.053.677.06l.31.004h30.292c.103 0 .206-.002.31-.005.226-.006.454-.02.677-.059.227-.04.438-.107.644-.212a2.153 2.153 0 00.946-.941c.105-.205.172-.415.212-.641.04-.222.053-.45.06-.674l.004-.31.001-.367V11.37l-.006-.309a4.43 4.43 0 00-.06-.674 2.16 2.16 0 00-1.158-1.583 2.292 2.292 0 00-.643-.21 4.53 4.53 0 00-.677-.06 16.578 16.578 0 00-.31-.005h-.37z" fill="#3C4043"/><path fill-rule="evenodd" clip-rule="evenodd" d="M34.777 9.293h.364c.098.001.197.002.296.005.172.005.374.014.562.048.163.029.3.073.431.14a1.39 1.39 0 01.61.608c.066.13.11.265.14.429.034.185.043.386.048.559.002.097.004.194.004.294l.001.362v16.888c-.001.097-.002.195-.005.292a3.766 3.766 0 01-.048.56 1.48 1.48 0 01-.14.428 1.382 1.382 0 01-.611.608c-.13.066-.267.11-.429.14a3.917 3.917 0 01-.56.047c-.1.003-.198.004-.3.005H4.86l-.294-.004a3.94 3.94 0 01-.562-.048 1.51 1.51 0 01-.432-.14 1.374 1.374 0 01-.61-.608 1.493 1.493 0 01-.14-.43 3.808 3.808 0 01-.048-.558 14.703 14.703 0 01-.004-.293v-17.25c0-.098.002-.196.004-.294a3.79 3.79 0 01.049-.56c.029-.161.073-.298.14-.429a1.382 1.382 0 01.61-.606c.13-.067.268-.111.43-.14.189-.034.39-.043.563-.048.098-.003.197-.004.295-.004l.364-.001h29.552z" fill="#FFFFFE"/><path d="M19.334 20.53v3.27H18.31v-8.072h2.72a2.424 2.424 0 011.758.701c.93.876.988 2.35.115 3.296l-.115.116c-.478.457-1.064.689-1.758.689h-1.695zm0-3.811v2.82h1.72c.383.012.752-.142 1.013-.42a1.43 1.43 0 00-.032-2 1.391 1.391 0 00-.98-.4h-1.72zm6.553 1.377c.758 0 1.357.206 1.796.612.44.405.657.972.657 1.687V23.8h-.981v-.766h-.045c-.427.63-.987.946-1.695.946-.598 0-1.108-.18-1.51-.54a1.715 1.715 0 01-.605-1.353c0-.572.217-1.023.644-1.364.427-.341 1-.509 1.713-.509.612 0 1.109.116 1.504.335v-.238c0-.354-.153-.689-.42-.92a1.482 1.482 0 00-.988-.38c-.573 0-1.026.244-1.357.733l-.905-.572c.485-.715 1.217-1.076 2.192-1.076zm-1.325 4.01c0 .271.127.522.338.677.229.18.51.276.796.27.433 0 .847-.174 1.153-.483.338-.322.51-.701.51-1.14-.319-.257-.765-.385-1.338-.379-.414 0-.765.103-1.045.303-.274.2-.414.45-.414.753z" fill="#3C4043"/><path fill-rule="evenodd" clip-rule="evenodd" d="M33.973 18.277l-3.427 7.95h-1.058l1.274-2.781-2.248-5.17h1.114l1.625 3.966h.02l1.585-3.965h1.115z" fill="#3C4043"/><path fill-rule="evenodd" clip-rule="evenodd" d="M15.183 19.822c0-.316-.025-.631-.076-.94H10.78v1.783h2.478a2.148 2.148 0 01-.917 1.41v1.158h1.478c.866-.805 1.363-1.995 1.363-3.411z" fill="#4285F4"/><path fill-rule="evenodd" clip-rule="evenodd" d="M10.784 24.353c1.236 0 2.28-.412 3.038-1.12l-1.477-1.159c-.415.284-.943.445-1.561.445-1.198 0-2.21-.818-2.574-1.912H6.687v1.197a4.577 4.577 0 004.097 2.55z" fill="#34A853"/><path fill-rule="evenodd" clip-rule="evenodd" d="M8.21 20.607a2.824 2.824 0 010-1.776V17.64H6.687a4.638 4.638 0 000 4.158l1.523-1.19z" fill="#FBBC04"/><path fill-rule="evenodd" clip-rule="evenodd" d="M10.784 16.919a2.455 2.455 0 011.758.695l1.312-1.326a4.402 4.402 0 00-3.07-1.204c-1.733 0-3.32.991-4.097 2.556l1.523 1.197c.363-1.101 1.376-1.918 2.574-1.918z" fill="#EA4335"/></svg>