<svg width="71" height="47" fill="none" xmlns="http://www.w3.org/2000/svg"><rect width="71" height="47" rx="4" fill="#F2F2F2"/><path fill="#fff" d="M6.878 4.7h57.258v37.6H6.878z" opacity=".01"/><path fill="#7272B5" d="M27.956 11.251h15.102V35.75H27.956z"/><path d="M29.583 23.5A15.498 15.498 0 0135.5 11.25c-6.434-5.024-15.676-4.294-21.23 1.676a15.503 15.503 0 000 21.148c5.554 5.97 14.796 6.7 21.23 1.675a15.498 15.498 0 01-5.917-12.25z" fill="#ED1C24"/><path fill-rule="evenodd" clip-rule="evenodd" d="M59.374 32.65v.5h-.089v-.5h-.207v-.102h.518v.102h-.222zm1.005-.102v.602h-.103v-.456l-.163.397h-.118l-.177-.397v.456h-.104v-.602h.148l.192.425.178-.425h.148z" fill="#00A1DE"/><path d="M60.883 23.5c-.004 5.962-3.434 11.4-8.834 14.006A15.785 15.785 0 0135.5 35.749c6.804-5.32 7.983-15.107 2.633-21.87a15.33 15.33 0 00-2.633-2.628 15.785 15.785 0 0116.549-1.757c5.4 2.606 8.83 8.044 8.834 14.006z" fill="#00A1DE"/></svg>