<svg width="71" height="47" fill="none" xmlns="http://www.w3.org/2000/svg"><rect width="71" height="47" rx="4" fill="#F2F2F2"/><g clip-path="url(#clip0)"><path d="M39.072 16.129l-.119-.208-.827-.159.415-.558-.078-.136a16.24 16.24 0 00-2.963-3.542 16.368 16.368 0 00-10.962-4.182c-9.02 0-16.331 7.233-16.331 16.156 0 8.923 7.311 16.156 16.33 16.156A16.37 16.37 0 0035.5 35.475c3.298-2.957 5.368-7.226 5.368-11.975 0-2.655-.649-5.161-1.796-7.371z" fill="#C00"/><path d="M46.463 7.344A16.367 16.367 0 0035.5 11.526a16.224 16.224 0 012.962 3.542l.079.135-.415.56.827.158.118.208a15.95 15.95 0 011.797 7.37c0 4.75-2.07 9.02-5.368 11.975a16.366 16.366 0 0010.963 4.182c9.019 0 16.33-7.233 16.33-16.156 0-8.922-7.311-16.156-16.33-16.156z" fill="#F90"/><path d="M18.076 21.87h2.014l-1.572 8.192h-2.012l1.57-8.191zm-6.042 0h5.228l-.3 1.55h-3.217l-.323 1.69h3.1l-.285 1.549h-3.11l-.354 1.855h3.215l-.297 1.548h-5.228l1.571-8.191zm11.889 4.081c.01-.14.016-.25.016-.337 0-.545-.334-.865-.902-.865-.607 0-1.041.429-1.217 1.203h2.103zm1.009 3.999a6.974 6.974 0 01-1.948.272c-2.133-.002-3.244-1.032-3.244-3.007 0-2.305 1.415-4.001 3.334-4.001 1.571 0 2.603.95 2.603 2.44 0 .495-.068.977-.234 1.658H21.62a1.332 1.332 0 00-.018.21c0 .78.566 1.176 1.673 1.176.682 0 1.298-.13 1.983-.425l-.326 1.677zm21.37-3.741c0-1.686-1.041-2.998-3.003-2.998-2.26 0-3.723 1.595-3.723 3.95 0 1.685.864 3.061 3.004 3.061 2.16 0 3.722-1.222 3.722-4.014zm-2.061-.026c0 1.518-.588 2.42-1.518 2.42-.675.01-1.086-.593-1.086-1.493 0-1.07.598-2.278 1.563-2.278.776 0 1.041.656 1.041 1.35zm2.87-1.063c.106-.579.2-1.143.261-1.747h1.869l-.167 1.091h.022c.583-.744 1.185-1.244 2.237-1.244 1.16 0 1.781 1.019 1.768 2.328-.005.45-.057.77-.183 1.393l-.593 3.12h-2.013l.594-3.132c.065-.346.13-.667.133-1.014.004-.398-.212-.795-.765-.77-.842 0-1.348.847-1.5 1.836l-.595 3.08h-2.014l.946-4.941zm7.244-1.747h2.013L55.09 30.06h-2.013l1.278-6.688zm-23.932 6.589c-.399.154-.93.257-1.706.257-1.684 0-2.726-1.376-2.726-3.06 0-2.201 1.507-3.951 3.723-3.951.488 0 1.23.168 1.818.45l-.36 1.637a2.726 2.726 0 00-1.358-.388c-1.03 0-1.763.772-1.763 2.16 0 .798.533 1.454 1.375 1.454.499 0 .853-.09 1.286-.295l-.29 1.736zm30.287 0c-.4.154-.932.257-1.708.257-1.684 0-2.725-1.376-2.725-3.06 0-2.201 1.506-3.951 3.724-3.951.487 0 1.23.168 1.816.45l-.36 1.637a2.724 2.724 0 00-1.357-.388c-1.031 0-1.763.772-1.763 2.16 0 .798.533 1.454 1.375 1.454.499 0 .853-.09 1.285-.295l-.288 1.736zm-24.54-6.589c-.257 2.068-.71 4.166-1.065 6.239l-.085.45h2.036c.734-4.002.981-5.142 2.52-4.74l.739-1.895c-1.072-.39-1.763.166-2.39.957.058-.355.164-.699.139-1.011h-1.895zm-1.505 5.198c-.836.12-1.219-.112-1.219-.562 0-.32.077-.655.166-1.156l.343-1.862h1.053l.309-1.618h-1.042l.3-1.6h-2.012l-.968 5.093c-.133.707-.177 1.04-.177 1.375 0 1.399.844 1.977 1.862 1.977.351 0 .721-.044 1.092-.107l.293-1.54z" fill="#006"/><path d="M22.04 19.914h-1.328l.762-4.722-1.701 4.722h-.906l-.112-4.695-.8 4.695H16.71l1.04-6.143h1.91l.054 3.803 1.29-3.803h2.064l-1.028 6.143zm4.241 0h-1.1l.024-.517c-.335.409-.784.604-1.393.604-.72 0-1.214-.557-1.214-1.366 0-1.216.858-1.925 2.334-1.925.15 0 .343.014.542.039a1.21 1.21 0 00.052-.325c0-.331-.232-.454-.854-.454a4.434 4.434 0 00-1.406.225l.184-1.124c.663-.193 1.1-.265 1.59-.265 1.142 0 1.747.507 1.746 1.465.002.257-.04.575-.108.99-.115.723-.363 2.276-.397 2.653zm-.967-2.226a2.162 2.162 0 00-.296-.02c-.753 0-1.135.256-1.135.76 0 .31.186.51.477.51.541 0 .931-.51.954-1.25zm18.793-3.752l-.216 1.334c-.474-.237-.819-.332-1.188-.332-.992 0-1.688.95-1.688 2.301 0 .933.468 1.497 1.24 1.497.328 0 .69-.1 1.13-.315l-.235 1.4c-.489.132-.805.18-1.174.18-1.43 0-2.322-1.018-2.322-2.653 0-2.197 1.232-3.73 2.994-3.73.58 0 1.266.242 1.46.318zm3.114 5.978H46.12l.024-.517c-.336.409-.783.604-1.393.604-.72 0-1.214-.557-1.214-1.366 0-1.216.859-1.925 2.334-1.925.151 0 .343.014.541.039a1.28 1.28 0 00.052-.325c0-.331-.23-.454-.852-.454a4.44 4.44 0 00-1.407.225l.185-1.124c.662-.193 1.098-.265 1.59-.265 1.14 0 1.746.507 1.744 1.465.004.257-.04.575-.106.99-.116.723-.364 2.276-.397 2.653zm-.968-2.226a2.14 2.14 0 00-.295-.02c-.753 0-1.135.256-1.135.76 0 .31.185.51.476.51.54 0 .932-.51.954-1.25zm-14.065 2.15a3.073 3.073 0 01-.955.163c-.678 0-1.05-.386-1.05-1.098-.01-.221.097-.8.182-1.331.077-.467.576-3.41.576-3.41h1.321l-.154.756h.678l-.18 1.201h-.68c-.154.95-.374 2.134-.376 2.29 0 .258.14.37.456.37.151 0 .268-.014.358-.046l-.176 1.105zm3.309-3.003c.008-.104.14-.891-.615-.891-.42 0-.721.318-.844.891h1.459zm.743 2.964a4.59 4.59 0 01-1.356.202c-1.48-.002-2.25-.766-2.25-2.23 0-1.707.98-2.965 2.311-2.965 1.09 0 1.786.704 1.786 1.809 0 .366-.048.724-.163 1.228h-2.631c-.09.726.38 1.027 1.149 1.027.472 0 .898-.096 1.374-.315l-.22 1.244zm-9.162-3.302c0 .633.31 1.068 1.012 1.395.539.25.622.325.622.552 0 .312-.237.452-.763.452a3.74 3.74 0 01-1.191-.197l-.183 1.154c.302.065.571.125 1.383.148 1.403 0 2.051-.528 2.051-1.67 0-.688-.271-1.09-.937-1.393-.557-.252-.622-.31-.622-.543 0-.27.222-.408.651-.408.26 0 .618.028.955.075l.19-1.159a9.212 9.212 0 00-1.17-.097c-1.488 0-2.003.768-1.998 1.691zm25.217 2.263c.62 0 1.055-.694 1.055-1.684 0-.634-.249-.979-.705-.979-.603 0-1.031.695-1.031 1.678 0 .654.229.985.681.985zm1.962 1.154H53l.062-.465c-.365.385-.738.552-1.227.552-.965 0-1.603-.824-1.603-2.074 0-1.661.99-3.062 2.162-3.062.516 0 .906.207 1.269.68l.294-1.774h1.313l-1.013 6.143zm-5.84-4.996c-.165 1.547-.46 3.113-.692 4.66l-.06.336h1.329c.476-3.055.59-3.652 1.336-3.577.119-.626.34-1.173.504-1.449-.555-.115-.867.197-1.275.787.032-.255.092-.504.08-.757h-1.222zm-10.941 0c-.167 1.547-.462 3.113-.694 4.66l-.06.336h1.33c.476-3.055.59-3.652 1.334-3.577.12-.626.342-1.173.506-1.449-.556-.115-.868.197-1.275.787.033-.255.092-.504.08-.757h-1.22zM55.181 19.5h.046c.017 0 .035.001.05-.007a.05.05 0 00.02-.04.047.047 0 00-.019-.035c-.015-.008-.037-.006-.053-.006h-.044v.088zm0 .194h-.08v-.343h.147c.03 0 .061 0 .09.018a.102.102 0 01.043.085c0 .04-.023.075-.06.089l.064.151h-.09l-.053-.136h-.06v.136zm.054.126a.3.3 0 00.301-.297.3.3 0 00-.301-.297c-.166 0-.3.133-.3.297a.3.3 0 00.3.297zm-.395-.297c0-.217.177-.391.395-.391a.392.392 0 110 .782.393.393 0 01-.395-.391z" fill="#fff"/><path d="M60.438 33.202h-.214v-.115h.555v.115h-.213v.572h-.128v-.572zm.505-.115h.198l.18.464.18-.464h.198v.687h-.128v-.526h-.003l-.195.526h-.104l-.196-.526h-.002v.526h-.128v-.687z" fill="#F90"/></g><defs><clipPath id="clip0"><path fill="#fff" transform="translate(8.207 7.344)" d="M0 0h54.586v32.313H0z"/></clipPath></defs></svg>