<svg width="71" height="47" fill="none" xmlns="http://www.w3.org/2000/svg"><rect width="71" height="47" rx="4" fill="#2A2A6C"/><path fill-rule="evenodd" clip-rule="evenodd" d="M44.893 25.953c.009-2.24-1.851-3.207-3.295-3.958-.913-.475-1.66-.863-1.66-1.433 0-.484.473-.998 1.479-1.13a6.668 6.668 0 013.49.602l.622-2.938a9.586 9.586 0 00-3.313-.602c-3.491 0-5.917 1.85-5.917 4.494 0 1.954 1.76 3.04 3.091 3.687 1.332.646 1.85 1.101 1.835 1.689 0 .91-1.095 1.322-2.116 1.337a7.438 7.438 0 01-3.609-.882l-.636 2.938c1.254.486 2.59.73 3.935.72 3.712 0 6.153-1.822 6.168-4.642l-.074.118zm-9.6-9.224l-2.958 13.586h-3.55l2.958-13.586h3.55zm14.88 8.813l1.864-5.097 1.08 5.096h-2.944zm7.234 4.817h-3.284l-.429-2.027h-4.452l-.725 2.027h-3.728l5.31-12.587a1.612 1.612 0 011.48-.999h2.958l2.87 13.586zm-32.838-.088l5.74-13.586h-3.847l-3.683 9.238-1.479-7.857a1.653 1.653 0 00-1.642-1.381h-6.02l-.089.396c1.208.235 2.38.62 3.491 1.146.473.221.794.673.843 1.19L20.71 30.27h3.86z" fill="#fff"/></svg>