<svg width="71" height="47" fill="none" xmlns="http://www.w3.org/2000/svg"><rect width="71" height="47" rx="4" fill="#2A2A6C"/><g clip-path="url(#clip0)"><path d="M30.16 13.473L24.351 27.38h-3.79l-2.86-11.1c-.173-.681-.323-.932-.851-1.22-.862-.47-2.286-.91-3.538-1.184l.085-.403h6.102c.777 0 1.476.518 1.654 1.417l1.51 8.048 3.73-9.465h3.767zm5.125 0L32.32 27.38h-3.586l2.965-13.907h3.586zm9.727 9.366c.015-3.67-5.057-3.873-5.024-5.513.012-.498.485-1.03 1.521-1.165.513-.066 1.93-.12 3.536.623l.628-2.95a9.605 9.605 0 00-3.353-.615c-3.545 0-6.039 1.889-6.059 4.596-.023 2.003 1.781 3.12 3.138 3.786 1.398.681 1.867 1.12 1.86 1.728-.01.933-1.116 1.346-2.145 1.361-1.803.03-2.848-.489-3.682-.878l-.651 3.048c.839.386 2.385.721 3.986.738 3.769 0 6.234-1.867 6.245-4.759zm9.36 4.54h3.316L54.79 13.474h-3.059c-.69 0-1.27.401-1.527 1.02l-5.38 12.887h3.765l.747-2.078h4.6l.435 2.078zm-4.002-4.926l1.888-5.223 1.084 5.223H50.37zm-10.496 8.755h-1.457v1.36h1.63v.41h-2.121v-3.775h2.037v.409h-1.546v1.193h1.457v.403zM40.799 29h.491v3.977h-.49V29zm1.73 2.71c.011.668.43.942.926.942.352 0 .57-.062.748-.14l.09.353a2.199 2.199 0 01-.905.173c-.831 0-1.328-.554-1.328-1.372 0-.818.48-1.456 1.267-1.456.888 0 1.117.773 1.117 1.271 0 .101-.006.174-.018.23H42.53zm1.44-.352c.006-.308-.129-.795-.681-.795-.502 0-.714.453-.754.795h1.435zm3.147 1.523a1.891 1.891 0 01-.776.157c-.815 0-1.345-.554-1.345-1.383 0-.834.569-1.445 1.45-1.445.291 0 .548.073.682.146l-.112.375a1.2 1.2 0 00-.57-.13c-.619 0-.953.466-.953 1.026 0 .627.401 1.014.937 1.014a1.4 1.4 0 00.603-.13l.084.37zm1.377-3.265v.65h.703v.375h-.703v1.462c0 .336.095.526.369.526a.906.906 0 00.285-.033l.022.375a1.336 1.336 0 01-.436.067c-.228 0-.413-.078-.53-.207-.134-.151-.19-.392-.19-.711v-1.479h-.418v-.375h.418v-.504l.48-.146zm1.39 1.496c0-.32-.007-.594-.023-.846h.43l.022.538h.017c.123-.364.424-.594.753-.594.05 0 .09.006.134.011v.465c-.05-.011-.1-.011-.167-.011-.346 0-.592.257-.659.627a1.485 1.485 0 00-.017.23v1.445h-.49v-1.865zm4.352.487c0 1.002-.698 1.44-1.345 1.44-.726 0-1.295-.539-1.295-1.395 0-.902.597-1.434 1.34-1.434.775 0 1.3.566 1.3 1.389zm-2.138.028c0 .594.335 1.042.815 1.042.47 0 .82-.443.82-1.053 0-.46-.228-1.037-.809-1.037-.574 0-.826.538-.826 1.048zm2.89-.628a9.49 9.49 0 00-.022-.733h.436l.028.448h.01a1 1 0 01.894-.504c.373 0 .954.224.954 1.153v1.614h-.491v-1.563c0-.437-.162-.8-.625-.8-.318 0-.57.229-.658.503a.701.701 0 00-.034.23v1.63h-.491V31z" fill="#fff"/></g><defs><clipPath id="clip0"><path fill="#fff" transform="translate(13.313 13.219)" d="M0 0h44.375v19.828H0z"/></clipPath></defs></svg>